# xmcd
#
# Track frame offsets: 
#        150
#        16815
#        36892
#        54494
#        73506
#        92454
#        108829
#        124884
#        141172
#        160185
#        182005
#        196668
#
# Disc length: 2815 seconds
#
# Revision: 5
# Processed by: cddbd v1.5.2PL0 Copyright (c) Steve Scherf et al.
# Submitted via: ExactAudioCopy v1.0b3
#
DISCID=950afd0c
DTITLE=中森明菜 - CROSS MY PALM 2012 Remaster WPCL-11732
DYEAR=1989
DGENRE=Rock
TTITLE0=CROSS MY PALM
TTITLE1=POLITICAL MOVES
TTITLE2=SLAVE FOR LOVE
TTITLE3=EASY RIDER
TTITLE4=MODERN WOMAN
TTITLE5=THE LOOK THAT KILLS
TTITLE6=SOFT TOUCH
TTITLE7=MY POSITION
TTITLE8=THE TOUCH OF A HEARTACHE
TTITLE9=HOUSE OF LOVE
TTITLE10=NO MORE
TTITLE11=HE'S JUST IN LOVE WITH THE BEAT
EXTD=YEAR: 1989
EXTT0=
EXTT1=
EXTT2=
EXTT3=
EXTT4=
EXTT5=
EXTT6=
EXTT7=
EXTT8=
EXTT9=
EXTT10=
EXTT11=
PLAYORDER=
